<svg width="16" height="16" viewBox="0 0 16 16" fill="none" xmlns="http://www.w3.org/2000/svg">
<g clip-path="url(#clip0_1065_6805)">
<path fill-rule="evenodd" clip-rule="evenodd" d="M0.999917 11.5006C0.999917 11.6332 1.0526 11.7604 1.14636 11.8542C1.24013 11.948 1.36731 12.0006 1.49992 12.0006H13.2929L10.1459 15.1466C10.052 15.2405 9.99929 15.3679 9.99929 15.5006C9.99929 15.6334 10.052 15.7607 10.1459 15.8546C10.2398 15.9485 10.3671 16.0013 10.4999 16.0013C10.6327 16.0013 10.76 15.9485 10.8539 15.8546L14.8539 11.8546C14.9005 11.8082 14.9374 11.753 14.9626 11.6923C14.9878 11.6315 15.0008 11.5664 15.0008 11.5006C15.0008 11.4349 14.9878 11.3697 14.9626 11.309C14.9374 11.2483 14.9005 11.1931 14.8539 11.1466L10.8539 7.14663C10.76 7.05274 10.6327 7 10.4999 7C10.3671 7 10.2398 7.05274 10.1459 7.14663C10.052 7.24052 9.99929 7.36786 9.99929 7.50063C9.99929 7.63341 10.052 7.76075 10.1459 7.85463L13.2929 11.0006H1.49992C1.36731 11.0006 1.24013 11.0533 1.14636 11.1471C1.0526 11.2408 0.999917 11.368 0.999917 11.5006ZM14.9999 4.50063C14.9999 4.63324 14.9472 4.76042 14.8535 4.85419C14.7597 4.94795 14.6325 5.00063 14.4999 5.00063H2.70692L5.85392 8.14663C5.9004 8.19312 5.93728 8.24831 5.96244 8.30905C5.9876 8.36979 6.00055 8.43489 6.00055 8.50063C6.00055 8.56637 5.9876 8.63148 5.96244 8.69221C5.93728 8.75295 5.9004 8.80814 5.85392 8.85463C5.80743 8.90112 5.75224 8.938 5.6915 8.96315C5.63076 8.98831 5.56566 9.00126 5.49992 9.00126C5.43417 9.00126 5.36907 8.98831 5.30833 8.96315C5.24759 8.938 5.1924 8.90112 5.14592 8.85463L1.14592 4.85463C1.09935 4.80819 1.06241 4.75301 1.0372 4.69227C1.012 4.63152 0.999023 4.5664 0.999023 4.50063C0.999023 4.43486 1.012 4.36974 1.0372 4.309C1.06241 4.24825 1.09935 4.19308 1.14592 4.14663L5.14592 0.146632C5.2398 0.052745 5.36714 0 5.49992 0C5.63269 0 5.76003 0.052745 5.85392 0.146632C5.9478 0.240518 6.00055 0.367856 6.00055 0.500632C6.00055 0.633407 5.9478 0.760745 5.85392 0.854632L2.70692 4.00063H14.4999C14.6325 4.00063 14.7597 4.05331 14.8535 4.14708C14.9472 4.24085 14.9999 4.36802 14.9999 4.50063Z" fill="#6D338A"/>
</g>
<defs>
<clipPath id="clip0_1065_6805">
<rect width="16" height="16" fill="white"/>
</clipPath>
</defs>
</svg>
