<svg width="24" height="24" viewBox="0 0 24 24" fill="none" xmlns="http://www.w3.org/2000/svg">
<g clip-path="url(#clip0_1215_6680)">
<path d="M23.9998 20.7231C23.9295 20.9341 23.8779 21.1591 23.7795 21.3606C23.3904 22.1763 22.4811 22.6638 21.6232 22.5325C20.6389 22.3778 19.9404 21.6841 19.7951 20.7044C19.6639 19.8372 20.1701 18.9325 20.9998 18.5481C21.0982 18.5013 21.1873 18.4825 21.1873 18.3278C21.1826 16.4716 21.1826 14.6153 21.1826 12.745C19.5326 12.745 17.8873 12.745 16.2279 12.745C16.2279 14.6481 16.2279 16.5513 16.2279 18.4685C16.8607 18.7263 17.3201 19.1716 17.5264 19.8419C17.8545 20.9106 17.2779 22.0497 16.2139 22.4294C15.1639 22.8044 13.9873 22.2794 13.5561 21.2481C13.1295 20.2216 13.5842 19.0403 14.5967 18.5669C14.7561 18.4919 14.8076 18.4169 14.8076 18.2388C14.7982 16.4153 14.8029 14.5919 14.8029 12.745C13.167 12.745 11.5404 12.745 9.89981 12.745C9.89981 14.6435 9.89981 16.5513 9.89981 18.4685C10.5326 18.7263 10.9873 19.1669 11.1936 19.8372C11.5217 20.906 10.9451 22.045 9.88574 22.4247C8.83574 22.7997 7.65918 22.2794 7.22793 21.2435C6.80137 20.2169 7.25137 19.0356 8.26855 18.5575C8.42324 18.4825 8.47949 18.4075 8.47949 18.2341C8.47012 16.481 8.4748 14.7278 8.4748 12.97C8.4748 12.895 8.4748 12.82 8.4748 12.7263C6.11231 12.7263 3.77324 12.7263 1.39668 12.7263C1.39668 12.6185 1.39668 12.5294 1.39668 12.4403C1.39668 10.2278 1.39668 8.01065 1.40137 5.79815C1.40137 5.63877 1.35918 5.55909 1.20918 5.48409C0.599805 5.20284 0.220117 4.72002 0.0466797 4.06846C0.0326172 4.0169 0.0138672 3.97002 -0.00488281 3.91846C-0.00488281 3.7169 -0.00488281 3.51065 -0.00488281 3.30909C0.0138672 3.24346 0.0326172 3.17784 0.0513672 3.10752C0.285742 2.15127 1.13887 1.48096 2.11387 1.48565C3.08418 1.49971 3.9373 2.17471 4.1623 3.11221C4.39199 4.07784 3.92793 5.04346 3.01855 5.48877C2.94824 5.52159 2.88262 5.5544 2.82637 5.58252C2.82637 7.49971 2.82637 9.40284 2.82637 11.3013C4.71543 11.3013 6.59512 11.3013 8.47949 11.3013C8.47949 9.38409 8.47949 7.48096 8.47949 5.58252C7.24668 5.0669 6.92793 3.93721 7.13887 3.08877C7.37324 2.15127 8.23106 1.48565 9.19668 1.49034C10.1623 1.49502 11.0154 2.17002 11.2404 3.10752C11.4467 3.97471 11.0998 5.07627 9.90449 5.57784C9.90449 7.48565 9.90449 9.38877 9.90449 11.2966C11.5451 11.2966 13.1717 11.2966 14.8029 11.2966C14.8029 9.3794 14.8029 7.47627 14.8029 5.57784C13.5842 5.0669 13.2514 3.9419 13.467 3.08409C13.7014 2.14659 14.5592 1.48096 15.5248 1.48565C16.4904 1.49034 17.3436 2.17002 17.5639 3.10752C17.7701 3.97471 17.4232 5.07627 16.2279 5.57315C16.2279 7.48096 16.2279 9.38877 16.2279 11.2919C17.8873 11.2919 19.5279 11.2919 21.1826 11.2919C21.1826 11.2028 21.1826 11.1325 21.1826 11.0669C21.1826 9.31377 21.1779 7.55596 21.1873 5.80284C21.1873 5.6294 21.1404 5.54971 20.9811 5.47471C20.1561 5.09502 19.6639 4.19034 19.7904 3.33252C19.9357 2.35752 20.6154 1.66846 21.5951 1.5044C22.4529 1.35909 23.367 1.83721 23.7607 2.64815C23.8639 2.8544 23.9154 3.08409 23.9904 3.3044C23.9904 3.50596 23.9904 3.71221 23.9904 3.91377C23.9811 3.92315 23.9623 3.93252 23.9623 3.94659C23.8076 4.68721 23.3857 5.20752 22.6967 5.52627C22.6404 5.5544 22.5889 5.6669 22.5889 5.7419C22.5842 9.91846 22.5842 14.0997 22.5795 18.2763C22.5795 18.4028 22.6123 18.4685 22.7342 18.52C23.1842 18.7169 23.5357 19.0356 23.7514 19.4763C23.8498 19.6778 23.9107 19.8935 23.9904 20.1044C23.9998 20.32 23.9998 20.5216 23.9998 20.7231Z" fill="#6D338A"/>
</g>
<defs>
<clipPath id="clip0_1215_6680">
<rect width="24" height="24" fill="white"/>
</clipPath>
</defs>
</svg>
