<svg width="24" height="25" viewBox="0 0 24 25" fill="none" xmlns="http://www.w3.org/2000/svg">
<path d="M12.1967 22.2496C11.8847 22.2496 11.5727 22.2496 11.2607 22.2496C10.9583 22.2064 10.6559 22.1824 10.3583 22.1152C6.66707 21.3184 4.26227 19.1104 3.13427 15.5104C2.96147 14.968 2.89427 14.4016 2.82227 13.84C2.82227 13.312 2.82227 12.784 2.82227 12.2608C2.86547 11.9776 2.89907 11.6944 2.95187 11.4112C3.93107 6.0352 9.32147 2.6896 14.5775 4.192C19.1375 5.4976 22.0127 10.1248 21.0671 14.7712C20.3471 18.3136 18.1967 20.6608 14.7791 21.8464C14.5535 21.9232 14.5343 21.904 14.5343 21.664C14.5343 19.5376 14.5343 17.4112 14.5295 15.2896C14.5295 15.1072 14.5967 15.0496 14.7743 15.0544C15.2879 15.064 15.8063 15.0544 16.3199 15.0592C16.4639 15.0592 16.5359 15.0208 16.5551 14.8624C16.6271 14.2432 16.7087 13.6288 16.7951 13.0144C16.8191 12.856 16.7759 12.8032 16.6127 12.808C15.9887 12.8176 15.3695 12.808 14.7455 12.8128C14.6207 12.8128 14.5343 12.784 14.5391 12.6352C14.5487 12.1072 14.5103 11.584 14.5631 11.056C14.6159 10.5328 14.8799 10.264 15.4079 10.2016C15.8399 10.1488 16.2671 10.1824 16.6991 10.1776C16.8287 10.1728 16.9007 10.1488 16.9007 9.9952C16.8959 9.4432 16.8959 8.8912 16.9007 8.344C16.9007 8.2192 16.8527 8.1568 16.7231 8.1472C16.1567 8.1136 15.5903 8.0608 15.0191 8.08C14.3999 8.0992 13.8095 8.2432 13.3007 8.6224C12.5663 9.1696 12.2687 9.9376 12.2255 10.816C12.1967 11.3824 12.2159 11.9536 12.2159 12.52C12.2159 12.8128 12.2159 12.8128 11.9279 12.8128C11.4383 12.8128 10.9439 12.8176 10.4543 12.808C10.2911 12.8032 10.2335 12.8608 10.2335 13.024C10.2383 13.6288 10.2383 14.2336 10.2335 14.8384C10.2335 15.0016 10.2863 15.064 10.4495 15.0592C10.9343 15.0544 11.4191 15.0544 11.9039 15.0592C12.2111 15.0592 12.2111 15.0592 12.2111 15.3712C12.2111 17.5888 12.2111 19.8016 12.2111 22.0192C12.2063 22.096 12.2015 22.1728 12.1967 22.2496Z" fill="white"/>
</svg>
