<svg width="24" height="24" viewBox="0 0 24 24" fill="none" xmlns="http://www.w3.org/2000/svg">
<g clip-path="url(#clip0_1786_9255)">
<path d="M12.2112 24C11.8047 24 11.3983 24 10.9919 24C10.598 23.9437 10.2041 23.9124 9.81645 23.8249C5.00826 22.7866 1.87575 19.9094 0.406414 15.2184C0.181323 14.5116 0.0937877 13.7735 0 13.0417C0 12.3537 0 11.6657 0 10.9839C0.0562726 10.6149 0.10004 10.2458 0.168818 9.87682C1.44433 2.87152 8.4659 -1.48803 15.3124 0.469702C21.2523 2.17099 24.9975 8.20055 23.7658 14.2551C22.8279 18.8711 20.0268 21.9297 15.575 23.4746C15.2811 23.5747 15.2561 23.5497 15.2561 23.2369C15.2561 20.4661 15.2561 17.6952 15.2499 14.9306C15.2499 14.693 15.3374 14.6179 15.5688 14.6242C16.2378 14.6367 16.913 14.6242 17.5821 14.6304C17.7696 14.6304 17.8634 14.5804 17.8884 14.374C17.9822 13.5671 18.0885 12.7665 18.2011 11.9659C18.2323 11.7595 18.1761 11.6907 17.9635 11.6969C17.1506 11.7095 16.3441 11.6969 15.5312 11.7032C15.3687 11.7032 15.2561 11.6657 15.2624 11.4718C15.2749 10.7838 15.2249 10.102 15.2936 9.41397C15.3624 8.7322 15.7063 8.38194 16.3941 8.30062C16.9568 8.23182 17.5133 8.2756 18.076 8.26935C18.2448 8.26309 18.3386 8.23182 18.3386 8.03167C18.3324 7.31238 18.3324 6.59308 18.3386 5.88004C18.3386 5.71742 18.2761 5.63611 18.1073 5.6236C17.3695 5.57982 16.6317 5.51101 15.8876 5.53603C15.0811 5.56105 14.312 5.74869 13.6492 6.24282C12.6926 6.95586 12.3049 7.95661 12.2487 9.10123C12.2112 9.83929 12.2362 10.5836 12.2362 11.3217C12.2362 11.7032 12.2362 11.7032 11.861 11.7032C11.2233 11.7032 10.5793 11.7095 9.9415 11.6969C9.72891 11.6907 9.65388 11.7657 9.65388 11.9784C9.66013 12.7665 9.66013 13.5546 9.65388 14.3427C9.65388 14.5554 9.72266 14.6367 9.93524 14.6304C10.5667 14.6242 11.1983 14.6242 11.8298 14.6304C12.2299 14.6304 12.2299 14.6304 12.2299 15.037C12.2299 17.9267 12.2299 20.8101 12.2299 23.6998C12.2237 23.7998 12.2174 23.8999 12.2112 24Z" fill="#316FF6"/>
</g>
<defs>
<clipPath id="clip0_1786_9255">
<rect width="24" height="24" fill="white"/>
</clipPath>
</defs>
</svg>
