<svg width="265" height="84" viewBox="0 0 265 84" fill="none" xmlns="http://www.w3.org/2000/svg">
<path d="M7.602 8.098C7.602 8.91 7.322 9.58667 6.762 10.128C6.21133 10.66 5.36667 10.926 4.228 10.926H2.352V15H1.078V5.242H4.228C5.32933 5.242 6.16467 5.508 6.734 6.04C7.31267 6.572 7.602 7.258 7.602 8.098ZM4.228 9.876C4.93733 9.876 5.46 9.722 5.796 9.414C6.132 9.106 6.3 8.66733 6.3 8.098C6.3 6.894 5.60933 6.292 4.228 6.292H2.352V9.876H4.228ZM12.5314 15.126C11.8128 15.126 11.1594 14.9627 10.5714 14.636C9.99276 14.3093 9.53542 13.8473 9.19942 13.25C8.87276 12.6433 8.70942 11.9433 8.70942 11.15C8.70942 10.366 8.87742 9.67533 9.21342 9.078C9.55876 8.47133 10.0254 8.00933 10.6134 7.692C11.2014 7.36533 11.8594 7.202 12.5874 7.202C13.3154 7.202 13.9734 7.36533 14.5614 7.692C15.1494 8.00933 15.6114 8.46667 15.9474 9.064C16.2928 9.66133 16.4654 10.3567 16.4654 11.15C16.4654 11.9433 16.2881 12.6433 15.9334 13.25C15.5881 13.8473 15.1168 14.3093 14.5194 14.636C13.9221 14.9627 13.2594 15.126 12.5314 15.126ZM12.5314 14.006C12.9888 14.006 13.4181 13.8987 13.8194 13.684C14.2208 13.4693 14.5428 13.1473 14.7854 12.718C15.0374 12.2887 15.1634 11.766 15.1634 11.15C15.1634 10.534 15.0421 10.0113 14.7994 9.582C14.5568 9.15267 14.2394 8.83533 13.8474 8.63C13.4554 8.41533 13.0308 8.308 12.5734 8.308C12.1068 8.308 11.6774 8.41533 11.2854 8.63C10.9028 8.83533 10.5948 9.15267 10.3614 9.582C10.1281 10.0113 10.0114 10.534 10.0114 11.15C10.0114 11.7753 10.1234 12.3027 10.3474 12.732C10.5808 13.1613 10.8888 13.4833 11.2714 13.698C11.6541 13.9033 12.0741 14.006 12.5314 14.006ZM28.3605 7.328L25.9665 15H24.6505L22.8025 8.91L20.9545 15H19.6385L17.2305 7.328H18.5325L20.2965 13.768L22.2005 7.328H23.5025L25.3645 13.782L27.1005 7.328H28.3605ZM36.6249 10.87C36.6249 11.1127 36.6109 11.3693 36.5829 11.64H30.4509C30.4975 12.396 30.7542 12.9887 31.2209 13.418C31.6969 13.838 32.2709 14.048 32.9429 14.048C33.4935 14.048 33.9509 13.922 34.3149 13.67C34.6882 13.4087 34.9495 13.0633 35.0989 12.634H36.4709C36.2655 13.3713 35.8549 13.9733 35.2389 14.44C34.6229 14.8973 33.8575 15.126 32.9429 15.126C32.2149 15.126 31.5615 14.9627 30.9829 14.636C30.4135 14.3093 29.9655 13.8473 29.6389 13.25C29.3122 12.6433 29.1489 11.9433 29.1489 11.15C29.1489 10.3567 29.3075 9.66133 29.6249 9.064C29.9422 8.46667 30.3855 8.00933 30.9549 7.692C31.5335 7.36533 32.1962 7.202 32.9429 7.202C33.6709 7.202 34.3149 7.36067 34.8749 7.678C35.4349 7.99533 35.8642 8.434 36.1629 8.994C36.4709 9.54467 36.6249 10.17 36.6249 10.87ZM35.3089 10.604C35.3089 10.1187 35.2015 9.70333 34.9869 9.358C34.7722 9.00333 34.4782 8.73733 34.1049 8.56C33.7409 8.37333 33.3349 8.28 32.8869 8.28C32.2429 8.28 31.6922 8.48533 31.2349 8.896C30.7869 9.30667 30.5302 9.876 30.4649 10.604H35.3089ZM39.5805 8.574C39.8045 8.13533 40.1218 7.79467 40.5325 7.552C40.9525 7.30933 41.4612 7.188 42.0585 7.188V8.504H41.7225C40.2945 8.504 39.5805 9.27867 39.5805 10.828V15H38.3065V7.328H39.5805V8.574ZM50.5292 10.87C50.5292 11.1127 50.5152 11.3693 50.4872 11.64H44.3552C44.4018 12.396 44.6585 12.9887 45.1252 13.418C45.6012 13.838 46.1752 14.048 46.8472 14.048C47.3978 14.048 47.8552 13.922 48.2192 13.67C48.5925 13.4087 48.8538 13.0633 49.0032 12.634H50.3752C50.1698 13.3713 49.7592 13.9733 49.1432 14.44C48.5272 14.8973 47.7618 15.126 46.8472 15.126C46.1192 15.126 45.4658 14.9627 44.8872 14.636C44.3178 14.3093 43.8698 13.8473 43.5432 13.25C43.2165 12.6433 43.0532 11.9433 43.0532 11.15C43.0532 10.3567 43.2118 9.66133 43.5292 9.064C43.8465 8.46667 44.2898 8.00933 44.8592 7.692C45.4378 7.36533 46.1005 7.202 46.8472 7.202C47.5752 7.202 48.2192 7.36067 48.7792 7.678C49.3392 7.99533 49.7685 8.434 50.0672 8.994C50.3752 9.54467 50.5292 10.17 50.5292 10.87ZM49.2132 10.604C49.2132 10.1187 49.1058 9.70333 48.8912 9.358C48.6765 9.00333 48.3825 8.73733 48.0092 8.56C47.6452 8.37333 47.2392 8.28 46.7912 8.28C46.1472 8.28 45.5965 8.48533 45.1392 8.896C44.6912 9.30667 44.4345 9.876 44.3692 10.604H49.2132ZM51.7348 11.136C51.7348 10.352 51.8935 9.666 52.2108 9.078C52.5281 8.48067 52.9621 8.01867 53.5128 7.692C54.0728 7.36533 54.6981 7.202 55.3888 7.202C55.9861 7.202 56.5415 7.342 57.0548 7.622C57.5681 7.89267 57.9601 8.252 58.2308 8.7V4.64H59.5188V15H58.2308V13.558C57.9788 14.0153 57.6055 14.3933 57.1108 14.692C56.6161 14.9813 56.0375 15.126 55.3748 15.126C54.6935 15.126 54.0728 14.958 53.5128 14.622C52.9621 14.286 52.5281 13.8147 52.2108 13.208C51.8935 12.6013 51.7348 11.9107 51.7348 11.136ZM58.2308 11.15C58.2308 10.5713 58.1141 10.0673 57.8808 9.638C57.6475 9.20867 57.3301 8.882 56.9288 8.658C56.5368 8.42467 56.1028 8.308 55.6268 8.308C55.1508 8.308 54.7168 8.42 54.3248 8.644C53.9328 8.868 53.6201 9.19467 53.3868 9.624C53.1535 10.0533 53.0368 10.5573 53.0368 11.136C53.0368 11.724 53.1535 12.2373 53.3868 12.676C53.6201 13.1053 53.9328 13.4367 54.3248 13.67C54.7168 13.894 55.1508 14.006 55.6268 14.006C56.1028 14.006 56.5368 13.894 56.9288 13.67C57.3301 13.4367 57.6475 13.1053 57.8808 12.676C58.1141 12.2373 58.2308 11.7287 58.2308 11.15ZM66.6782 8.756C66.9395 8.29867 67.3222 7.92533 67.8262 7.636C68.3302 7.34667 68.9042 7.202 69.5482 7.202C70.2388 7.202 70.8595 7.36533 71.4102 7.692C71.9608 8.01867 72.3948 8.48067 72.7122 9.078C73.0295 9.666 73.1882 10.352 73.1882 11.136C73.1882 11.9107 73.0295 12.6013 72.7122 13.208C72.3948 13.8147 71.9562 14.286 71.3962 14.622C70.8455 14.958 70.2295 15.126 69.5482 15.126C68.8855 15.126 68.3022 14.9813 67.7982 14.692C67.3035 14.4027 66.9302 14.034 66.6782 13.586V15H65.4042V4.64H66.6782V8.756ZM71.8862 11.136C71.8862 10.5573 71.7695 10.0533 71.5362 9.624C71.3028 9.19467 70.9855 8.868 70.5842 8.644C70.1922 8.42 69.7582 8.308 69.2822 8.308C68.8155 8.308 68.3815 8.42467 67.9802 8.658C67.5882 8.882 67.2708 9.21333 67.0282 9.652C66.7948 10.0813 66.6782 10.5807 66.6782 11.15C66.6782 11.7287 66.7948 12.2373 67.0282 12.676C67.2708 13.1053 67.5882 13.4367 67.9802 13.67C68.3815 13.894 68.8155 14.006 69.2822 14.006C69.7582 14.006 70.1922 13.894 70.5842 13.67C70.9855 13.4367 71.3028 13.1053 71.5362 12.676C71.7695 12.2373 71.8862 11.724 71.8862 11.136ZM81.4731 7.328L76.8531 18.612H75.5371L77.0491 14.916L73.9551 7.328H75.3691L77.7771 13.544L80.1571 7.328H81.4731Z" fill="white"/>
<path d="M89.1365 39.7127L114.117 39.6377L117.045 42.8252L86.3938 42.9002L89.1365 39.7127Z" fill="#E6E7E8"/>
<path d="M63.9712 34.9883L63.9336 37.8008L63.9712 34.9883Z" fill="white"/>
<path d="M29.7246 45.1504L32.4302 48.0379H32.3931L29.7246 45.1504Z" fill="white"/>
<path d="M63.9708 45.0752L63.7484 47.8127L63.6372 45.0752H63.9708Z" fill="white"/>
<path d="M34.7651 50.2881L37.063 53.2506H37.026L34.7651 50.2881Z" fill="white"/>
<path d="M64.0448 50.2129L63.8595 52.9879L63.7483 50.2129H64.0448Z" fill="white"/>
<path d="M64.416 58.0127H64.3784V57.8252L64.416 58.0127Z" fill="#E6E7E8"/>
<path d="M39.5464 55.3125L41.9184 58.05H41.8814L39.5464 55.3125Z" fill="white"/>
<path d="M64.3785 57.8258L63.8596 55.2383H64.1191L64.3785 57.8258Z" fill="white"/>
<path d="M42.4373 60.0756L63.7855 60.0381L63.7114 60.4506L63.3778 63.0381L39.7317 63.1131H39.324L42.4373 60.0756Z" fill="white"/>
<path d="M64.3784 58.0129L42.0295 58.0504H41.9183L39.5463 55.3129L39.2498 54.9754L63.8225 54.9004L63.8596 55.2379L64.3784 57.8254V58.0129Z" fill="white"/>
<path d="M63.8226 60.4502L63.7114 63.0377L39.7317 63.1127L63.3778 63.0377L63.7114 60.4502H63.8226Z" fill="#E6E7E8"/>
<path d="M78.3142 47.5502C76.2387 48.7877 74.3855 45.5252 76.4611 44.3252C76.4981 44.2877 76.5352 44.2877 76.6093 44.2502C75.7569 43.2752 75.7939 41.5127 77.3876 41.2127C77.61 41.1752 77.8695 41.1002 78.0919 41.0627C78.4625 39.7127 79.9079 38.3627 81.4275 37.3127C80.3527 37.2002 79.2037 37.2002 78.0919 37.2752C77.9065 37.3502 77.6842 37.3502 77.4618 37.3502C76.4981 37.5377 75.7569 37.9127 74.7932 38.2127C73.6814 38.5502 72.7177 38.4002 71.6058 38.2877C70.6793 38.1752 69.6786 38.2127 68.7891 37.9127C68.4184 37.8002 68.0478 37.5002 67.6772 37.3127C67.01 37.3127 66.3058 37.2752 65.6387 37.1252C64.4156 36.9002 64.0821 35.7377 64.4527 34.7627H63.7114C63.7485 44.2127 63.7485 53.6627 63.7856 63.1127C70.7905 55.8377 76.3128 50.1377 79.3149 47.0252C78.9072 47.2127 78.6107 47.3627 78.3142 47.5502Z" fill="white"/>
<path d="M63.6743 34.7625C63.8226 36.525 64.082 37.9875 64.3415 39.075C64.8603 41.325 65.4904 43.0125 66.0834 44.625C66.3799 45.375 66.5652 45.9375 66.9359 46.65C67.3435 47.55 67.8624 48.45 68.9373 50.1C69.6785 51.225 70.7163 52.725 72.0135 54.4125C76.4981 49.875 80.9827 45.375 85.5044 40.8375C85.1338 40.9875 84.6519 41.1375 84.0589 41.25C83.7995 41.325 83.3547 41.4 82.5023 41.55C82.0946 41.625 81.4645 41.7375 80.7603 41.5875C80.6121 41.55 80.3897 41.5125 80.3156 41.325C80.2415 41.175 80.3156 40.9875 80.3526 40.8375C80.6121 40.2375 80.9827 39.7875 81.2422 39.4875C81.4645 39.2625 81.6869 39 81.9834 38.775C82.354 38.4375 82.6135 38.2125 82.947 37.9875C83.3918 37.725 83.9477 37.35 84.6519 37.3875C85.4673 37.425 85.9121 37.95 86.0603 37.8C86.2086 37.6125 85.6526 36.8625 85.6156 36.825C85.5414 36.75 85.2449 36.3375 84.689 36C84.5407 35.8875 84.3925 35.8125 84.2813 35.775C83.2435 35.25 81.8352 34.95 81.5387 34.875C80.6121 34.6875 79.982 34.6125 79.8338 34.575C79.5743 34.5375 79.2407 34.5 78.7589 34.5C78.5366 34.5 78.4254 34.5 77.9065 34.5375C77.9065 34.5375 77.8324 34.5375 76.9799 34.575C76.2757 34.5375 70.9757 34.65 63.6743 34.7625Z" fill="#E6E7E8"/>
<path d="M27.4268 42.7877H27.3527L24.7212 40.0127L27.4268 42.7877Z" fill="white"/>
<path d="M79.3148 37.7631C79.2036 37.8006 78.4623 38.0631 77.8323 37.6506C77.7211 37.5756 77.3505 37.3506 77.3505 37.0131C77.3134 36.5256 78.0547 36.1506 78.4623 36.0381C79.0554 35.8506 80.0561 35.8131 80.3155 36.2631C80.4637 36.6381 80.0931 37.3131 79.3148 37.7631Z" fill="black"/>
<path d="M56.1134 70.5752L53.3337 73.3877H53.2966L56.0393 70.5752H56.1134Z" fill="white"/>
<path d="M46.6625 78.4875C46.8107 78.45 46.9219 78.4125 47.0331 78.375C46.959 78.4125 46.8478 78.45 46.7737 78.45C45.9583 78.675 45.2541 78.75 44.8093 78.75C45.2541 78.75 45.9212 78.7125 46.6625 78.4875Z" fill="#E6E7E8"/>
<path d="M47.033 78.3758C47.2924 78.3008 47.5518 78.1883 47.7742 78.1133C47.5518 78.2258 47.2924 78.3008 47.033 78.3758Z" fill="#E6E7E8"/>
<path d="M63.7485 48.0002L32.5785 48.0377H32.4303L29.7247 45.1502L29.3911 44.7752L63.6002 44.7002L63.6373 45.0752L63.7485 47.8127V48.0002Z" fill="white"/>
<path d="M32.2078 70.2002L56.3728 70.2752L56.0393 70.5752L53.2966 73.3877H53.1854L29.7246 73.3502V73.3127H29.3169L32.2078 70.2002Z" fill="white"/>
<path d="M27.2784 75.2256H51.3693C51.2952 75.3381 51.184 75.4506 51.0728 75.5631C50.5169 76.2006 49.8127 76.8756 48.9602 77.4381C48.7749 77.5506 48.5896 77.6631 48.4043 77.7756C48.3302 77.8131 48.256 77.8506 48.1819 77.8881C48.1449 77.8881 48.1449 77.9256 48.1078 77.9256C47.9966 77.9631 47.8854 78.0381 47.7742 78.0756C47.5518 78.1881 47.2924 78.2631 47.033 78.3381C46.9218 78.3756 46.7735 78.4131 46.6623 78.4506C45.9211 78.6381 45.291 78.7131 44.8463 78.7131C44.698 78.7131 44.5497 78.7131 44.4756 78.7131C43.7344 78.7131 42.6225 78.7131 41.177 78.7131C40.3987 78.7131 39.5092 78.7131 38.5456 78.7131C38.5085 78.7131 38.4344 78.7131 38.3973 78.7131C34.8393 78.6756 30.1323 78.6381 24.6099 78.6006C24.4987 78.6006 24.3504 78.6006 24.2393 78.6006C25.24 77.4756 26.2407 76.3506 27.2784 75.2256Z" fill="white"/>
<path d="M10.6743 27.7129H10.3037L13.1205 24.6004C22.4604 24.5629 31.8002 24.5629 41.1401 24.5254C42.4743 25.0129 44.031 25.8379 45.1429 27.3754C45.217 27.4879 45.3282 27.6004 45.4023 27.7504C45.4023 27.7504 45.4023 27.7504 45.4023 27.7879L10.6743 27.7129Z" fill="white"/>
<path d="M34.7653 50.2879L34.4688 49.9129L63.7485 49.8379V50.2129L63.8597 52.9879V53.1754L37.2114 53.2504H37.0632L34.7653 50.2879Z" fill="white"/>
<path d="M5.52243 32.6629H5.30005L8.37627 29.5879H47.4035L47.6259 29.8504L48.1819 30.3754L50.3686 32.5879L5.48536 32.6629H5.52243Z" fill="white"/>
<path d="M82.8358 65.25C82.8358 65.25 82.7246 65.4 82.5763 65.5875C82.5763 65.625 82.5393 65.625 82.5393 65.6625C82.2428 66.0375 80.6491 68.1 78.9071 68.175C76.9798 68.25 34.9505 68.325 34.9505 68.325L34.9875 68.2875C34.6169 68.2875 34.3945 68.2875 34.3945 68.2875L37.2854 65.2875L82.8358 65.25Z" fill="white"/>
<path d="M64.045 40.0502L63.6744 42.9002L27.4268 42.7877L24.7212 40.0127L24.3506 39.6377H63.6002V40.0502H64.045Z" fill="white"/>
<path d="M63.9337 37.8006H0.111328L3.18755 34.5381L63.9708 34.7256V34.9881L63.9337 37.8006Z" fill="white"/>
<path d="M51.1099 75.6006C50.591 76.2006 49.8868 76.9131 48.9602 77.4756C49.8497 76.9131 50.5539 76.2006 51.1099 75.6006Z" fill="white"/>
<path d="M74.5338 24.6C73.0883 24.8625 72.0505 25.425 71.4205 25.8375C70.1974 26.625 69.3079 27.7125 69.382 27.7875C69.4191 27.825 69.6414 27.6375 70.0121 27.525C70.4198 27.4125 70.7904 27.45 71.0498 27.525C81.2051 27.525 91.3233 27.525 101.479 27.525C100.515 26.55 99.5512 25.5375 98.5505 24.5625" fill="#E6E7E8"/>
<path d="M67.6029 29.5131L64.6008 32.7756L65.305 32.5506L106.371 32.5131L103.406 29.4756" fill="#E6E7E8"/>
<path d="M85.8379 34.5756C93.3987 34.5756 100.997 34.5381 108.557 34.5381C109.595 35.6256 110.596 36.7131 111.634 37.8006C104.258 37.8006 96.8456 37.8006 89.4701 37.8381C89.2477 37.3881 88.9141 36.7881 88.3582 36.1881C87.8393 35.6256 87.3204 35.2506 86.9127 34.9881" fill="#E6E7E8"/>
<path d="M84.5778 44.7377L118.861 44.7002L121.752 47.7752L81.6128 47.8127" fill="#E6E7E8"/>
<path d="M88.1729 60.0756L84.8002 63.3006L73.0512 63.2631H82.7246L78.6107 60.3756H69.2337L66.8246 63.2256H66.3799L69.2337 60.0381L88.1729 60.0756Z" fill="#E6E7E8"/>
<path d="M74.3853 54.9756H93.2504L89.8776 58.1256L71.5315 58.0881L74.3853 54.9756Z" fill="#E6E7E8"/>
<path d="M73.7182 55.6504L76.2014 58.0879L71.5315 58.0504L73.7182 55.6504Z" fill="white"/>
<path d="M79.2779 49.875L98.2911 49.9125L95.0667 52.95L76.5723 53.025" fill="#E6E7E8"/>
<path d="M83.1694 63.3L72.9771 63.2625H66.3799L69.2337 60.0375L78.5736 60L83.1694 63.3Z" fill="white"/>
<path d="M73.0513 63.2631H66.8247V63.2256L73.0513 63.2631Z" fill="white"/>
<path d="M200.251 69.5631H194.766C192.987 69.5631 191.912 68.8881 191.504 67.5756C191.097 66.2631 191.393 64.5381 192.468 62.4381C193.543 60.2631 194.988 58.5381 196.804 57.2256C198.509 55.9881 200.214 55.3506 201.882 55.3506H207.367L206.107 57.9006H201.252C200.399 57.9006 199.51 58.1631 198.62 58.7256C197.731 59.2881 197.101 59.9631 196.693 60.7881L196.471 61.2006H204.439L203.179 63.7506H195.211L195.025 64.0881C194.655 64.8006 194.618 65.4756 194.914 66.0381C195.211 66.7131 195.915 67.0131 196.99 67.0131H201.548L200.251 69.5631Z" fill="white"/>
<path d="M216.374 69.5627H212.853L213.149 66.3002H207.738L204.699 69.5627H201.178L214.15 55.3877H217.597L216.374 69.5627ZM213.668 63.7502L214.113 58.8377L209.702 63.7502H213.668Z" fill="white"/>
<path d="M229.976 69.5631H223.156C219.079 69.5631 218.227 67.2006 220.599 62.4756C221.711 60.2631 223.082 58.5381 224.75 57.3006C226.492 55.9881 228.419 55.3506 230.532 55.3506H237.018L235.757 57.9006H229.605C228.382 57.9006 227.233 58.3506 226.195 59.2881C225.343 60.0381 224.564 61.0506 223.971 62.2881C222.378 65.4381 222.711 67.0506 224.898 67.0506H228.234L229.902 63.7131H225.936L227.196 61.1631H234.127L229.976 69.5631Z" fill="white"/>
<path d="M242.688 69.5627H238.13C236.425 69.5627 235.35 69.0752 234.979 68.0627C234.646 67.1627 234.868 65.8877 235.683 64.2752L240.131 55.3877H243.096L238.945 63.6752C238.352 64.8377 238.13 65.7002 238.241 66.2252C238.352 66.7877 238.908 67.0502 239.872 67.0502H244.023L242.688 69.5627Z" fill="white"/>
<path d="M255.216 69.5631H249.73C247.951 69.5631 246.876 68.8881 246.469 67.5756C246.061 66.2631 246.358 64.5381 247.432 62.4381C248.507 60.2631 249.953 58.5381 251.769 57.2256C253.474 55.9881 255.179 55.3506 256.846 55.3506H262.332L261.072 57.9006H256.216C255.364 57.9006 254.474 58.1631 253.585 58.7256C252.695 59.2881 252.065 59.9631 251.658 60.7881L251.435 61.2006H259.404L258.144 63.7506H250.175L249.99 64.0881C249.619 64.8006 249.582 65.4756 249.879 66.0381C250.175 66.7131 250.879 67.0131 251.954 67.0131H256.476L255.216 69.5631Z" fill="white"/>
<path d="M100.367 69.7502H96.8455L97.1791 66.4877H91.7679L88.7287 69.7502H85.2078L98.1798 55.5752H101.627L100.367 69.7502ZM97.698 63.9377L98.1427 59.0252L93.7322 63.9377H97.698Z" fill="white"/>
<path d="M114.524 69.7502H111.189C111.93 68.0627 112.338 66.8627 112.375 66.1502C112.449 64.9502 111.782 64.3877 110.448 64.3877H107.297L104.629 69.7502H101.701L108.817 55.5752H116.303C119.787 55.5752 120.862 56.9252 119.528 59.5877C118.787 61.0502 117.897 62.1377 116.896 62.8127C116.415 63.1502 115.673 63.4502 114.784 63.6752C115.599 64.0877 116.044 64.6127 116.081 65.3252C116.118 65.8127 115.896 66.5252 115.488 67.4252C114.895 68.5877 114.599 69.3752 114.524 69.7502ZM115.933 59.8877C116.526 58.6877 116.266 58.1252 115.117 58.1252H110.448L108.557 61.8752H113.19C114.376 61.8752 115.303 61.2002 115.933 59.8877Z" fill="white"/>
<path d="M130.462 69.7502H126.941L127.274 66.4877H121.863L118.824 69.7502H115.303L128.275 55.5752H131.722L130.462 69.7502ZM127.793 63.9377L128.238 59.0252L123.827 63.9377H127.793Z" fill="white"/>
<path d="M146.473 66.0002C145.769 67.4252 144.842 68.4377 143.656 69.0377C142.729 69.5252 141.543 69.7502 140.209 69.7502H132.018L139.134 55.5752H147.585C148.956 55.5752 149.809 55.9502 150.179 56.6627C150.513 57.3377 150.402 58.2002 149.883 59.2877C149.03 60.9752 147.807 62.1002 146.139 62.6627C146.658 63.1127 146.955 63.6002 147.029 64.0877C147.029 64.5752 146.843 65.2127 146.473 66.0002ZM143.471 65.4002C143.73 64.8752 143.73 64.4627 143.397 64.2002C143.174 64.0127 142.878 63.9377 142.544 63.9377H137.911L136.281 67.2377H140.95C141.395 67.2377 141.84 67.0502 142.359 66.7127C142.878 66.3377 143.248 65.8877 143.471 65.4002ZM146.325 59.6252C146.547 59.1752 146.584 58.8377 146.436 58.5377C146.288 58.2752 145.954 58.1252 145.472 58.1252H140.839L139.209 61.3877H143.878C144.36 61.3877 144.842 61.2002 145.324 60.8252C145.769 60.5252 146.102 60.1127 146.325 59.6252Z" fill="white"/>
<path d="M149.808 69.7502H146.88L153.996 55.5752H156.924L149.808 69.7502Z" fill="white"/>
<path d="M166.264 69.7502H162.743L163.077 66.4877H157.666L154.627 69.7502H151.106L164.078 55.5752H167.525L166.264 69.7502ZM163.596 63.9377L164.041 59.0252L159.63 63.9377H163.596Z" fill="white"/>
<path d="M180.015 69.7502H176.346L175.753 59.3627L170.527 69.7502H167.673L174.789 55.5752H178.606L178.977 66.0752L184.24 55.5752H187.131L180.015 69.7502Z" fill="white"/>
<path d="M56.5953 77.7756H55.6687L58.1519 73.1631H59.0785L56.5953 77.7756Z" fill="white"/>
<path d="M73.5701 77.7756H72.4212V74.4006L70.6051 77.7756H69.7156L72.1988 73.1631H73.3848L73.3107 76.5756L75.1638 73.1631H76.0533L73.5701 77.7756Z" fill="white"/>
<path d="M92.2127 73.9881H90.7302L88.6917 77.7756H87.7651L89.8036 73.9881H88.3952L88.84 73.1631H92.6574L92.2127 73.9881Z" fill="white"/>
<path d="M105.518 77.7756H103.776C103.22 77.7756 102.887 77.5506 102.776 77.1381C102.664 76.6881 102.813 76.1631 103.183 75.4506C103.554 74.7381 104.036 74.1756 104.629 73.7631C105.185 73.3506 105.741 73.1631 106.26 73.1631H107.964L107.52 73.9881H106C105.741 73.9881 105.444 74.0631 105.148 74.2506C104.851 74.4381 104.629 74.6631 104.518 74.9256L104.443 75.0756H106.927L106.482 75.9006H103.999L103.925 76.0131C103.813 76.2381 103.776 76.4631 103.85 76.6506C103.925 76.8756 104.147 76.9881 104.481 76.9881H105.889L105.518 77.7756Z" fill="white"/>
<path d="M121.789 77.7752H120.751C121.011 77.2127 121.159 76.8377 121.196 76.6127C121.233 76.2377 121.048 76.0502 120.64 76.0502H119.639L118.713 77.8127H117.786L120.269 73.2002H122.604C123.679 73.2002 124.013 73.6502 123.531 74.5127C123.271 75.0002 122.975 75.3377 122.641 75.5627C122.493 75.6752 122.234 75.7502 121.974 75.8627C122.234 75.9752 122.345 76.1627 122.345 76.3877C122.345 76.5377 122.271 76.7627 122.123 77.0627C121.937 77.4002 121.826 77.6627 121.789 77.7752ZM122.419 74.5502C122.641 74.1752 122.567 73.9877 122.197 73.9877H120.714L120.047 75.2252H121.492C121.9 75.2252 122.197 75.0002 122.419 74.5502Z" fill="white"/>
<path d="M138.467 77.7756H137.318V74.4006L135.502 77.7756H134.613L137.096 73.1631H138.282L138.208 76.5756L140.061 73.1631H140.951L138.467 77.7756Z" fill="white"/>
<path d="M155.813 77.7756H154.701L154.849 76.7256H153.144L152.144 77.7756H151.032L155.368 73.1631H156.443L155.813 77.7756ZM155.072 75.9006L155.294 74.2881L153.811 75.9006H155.072Z" fill="white"/>
<path d="M172.788 73.9881H171.305L169.267 77.7756H168.34L170.379 73.9881H168.97L169.415 73.1631H173.232L172.788 73.9881Z" fill="white"/>
<path d="M184.277 77.7756H183.351L185.834 73.1631H186.76L184.277 77.7756Z" fill="white"/>
<path d="M202.623 75.5254C201.808 77.0629 200.696 77.8129 199.25 77.8129C198.509 77.8129 198.064 77.5879 197.916 77.1754C197.768 76.7629 197.916 76.2004 198.287 75.4504C199.139 73.8754 200.288 73.0879 201.771 73.0879C202.475 73.0879 202.92 73.2754 203.068 73.6504C203.253 74.0629 203.105 74.7004 202.623 75.5254ZM201.66 75.4504C201.882 75.0379 201.993 74.7004 202.03 74.4754C202.067 74.1004 201.845 73.9129 201.326 73.9129C200.992 73.9129 200.696 74.0254 200.362 74.2129C199.955 74.4754 199.621 74.8879 199.325 75.4504C198.732 76.5004 198.843 77.0629 199.621 77.0629C200.399 77.0629 201.104 76.5379 201.66 75.4504Z" fill="white"/>
<path d="M218.078 77.7756H216.929V74.4006L215.113 77.7756H214.224L216.707 73.1631H217.893L217.819 76.5756L219.672 73.1631H220.562L218.078 77.7756Z" fill="white"/>
<path d="M235.424 77.7756H234.312L234.46 76.7256H232.755L231.755 77.7756H230.643L234.979 73.1631H236.054L235.424 77.7756ZM234.72 75.9006L234.942 74.2881L233.46 75.9006H234.72Z" fill="white"/>
<path d="M250.99 77.7756H249.545C248.989 77.7756 248.692 77.6256 248.581 77.2881C248.507 76.9881 248.581 76.5756 248.878 76.0506L250.434 73.1631H251.361L249.915 75.8631C249.693 76.2381 249.619 76.5381 249.656 76.6881C249.693 76.8756 249.841 76.9506 250.138 76.9506H251.435L250.99 77.7756Z" fill="white"/>
</svg>
