<svg width="24" height="24" viewBox="0 0 24 24" fill="none" xmlns="http://www.w3.org/2000/svg">
<g clip-path="url(#clip0_533_11056)">
<path d="M24 20.7234C23.9297 20.9343 23.8782 21.1593 23.7797 21.3609C23.3907 22.1765 22.4813 22.664 21.6235 22.5328C20.6391 22.3781 19.9407 21.6843 19.7954 20.7046C19.6641 19.8375 20.1704 18.9328 21 18.5484C21.0985 18.5015 21.1875 18.4828 21.1875 18.3281C21.1829 16.4718 21.1829 14.6156 21.1829 12.7453C19.5329 12.7453 17.8876 12.7453 16.2282 12.7453C16.2282 14.6484 16.2282 16.5515 16.2282 18.4687C16.861 18.7265 17.3204 19.1718 17.5266 19.8421C17.8547 20.9109 17.2782 22.05 16.2141 22.4296C15.1641 22.8046 13.9875 22.2796 13.5563 21.2484C13.1297 20.2218 13.5844 19.0406 14.5969 18.5671C14.7563 18.4921 14.8079 18.4171 14.8079 18.239C14.7985 16.4156 14.8032 14.5921 14.8032 12.7453C13.1672 12.7453 11.5407 12.7453 9.90005 12.7453C9.90005 14.6437 9.90005 16.5515 9.90005 18.4687C10.5329 18.7265 10.9875 19.1671 11.1938 19.8375C11.5219 20.9062 10.9454 22.0453 9.88599 22.425C8.83599 22.8 7.65942 22.2796 7.22817 21.2437C6.80161 20.2171 7.25161 19.0359 8.2688 18.5578C8.42349 18.4828 8.47974 18.4078 8.47974 18.2343C8.47036 16.4812 8.47505 14.7281 8.47505 12.9703C8.47505 12.8953 8.47505 12.8203 8.47505 12.7265C6.11255 12.7265 3.77349 12.7265 1.39692 12.7265C1.39692 12.6187 1.39692 12.5296 1.39692 12.4406C1.39692 10.2281 1.39692 8.01089 1.40161 5.79839C1.40161 5.63902 1.35942 5.55933 1.20942 5.48433C0.600049 5.20308 0.220361 4.72027 0.0469238 4.0687C0.0328613 4.01714 0.0141113 3.97027 -0.00463867 3.9187C-0.00463867 3.71714 -0.00463867 3.51089 -0.00463867 3.30933C0.0141113 3.2437 0.0328613 3.17808 0.0516113 3.10777C0.285986 2.15152 1.13911 1.4812 2.11411 1.48589C3.08442 1.49995 3.93755 2.17495 4.16255 3.11245C4.39224 4.07808 3.92817 5.0437 3.0188 5.48902C2.94849 5.52183 2.88286 5.55464 2.82661 5.58277C2.82661 7.49995 2.82661 9.40308 2.82661 11.3015C4.71567 11.3015 6.59536 11.3015 8.47974 11.3015C8.47974 9.38433 8.47974 7.4812 8.47974 5.58277C7.24692 5.06714 6.92817 3.93745 7.13911 3.08902C7.37349 2.15152 8.2313 1.48589 9.19692 1.49058C10.1625 1.49527 11.0157 2.17027 11.2407 3.10777C11.4469 3.97495 11.1 5.07652 9.90474 5.57808C9.90474 7.48589 9.90474 9.38902 9.90474 11.2968C11.5454 11.2968 13.1719 11.2968 14.8032 11.2968C14.8032 9.37964 14.8032 7.47652 14.8032 5.57808C13.5844 5.06714 13.2516 3.94214 13.4672 3.08433C13.7016 2.14683 14.5594 1.4812 15.525 1.48589C16.4907 1.49058 17.3438 2.17027 17.5641 3.10777C17.7704 3.97495 17.4235 5.07652 16.2282 5.57339C16.2282 7.4812 16.2282 9.38902 16.2282 11.2921C17.8876 11.2921 19.5282 11.2921 21.1829 11.2921C21.1829 11.2031 21.1829 11.1328 21.1829 11.0671C21.1829 9.31402 21.1782 7.5562 21.1875 5.80308C21.1875 5.62964 21.1407 5.54995 20.9813 5.47495C20.1563 5.09527 19.6641 4.19058 19.7907 3.33277C19.936 2.35777 20.6157 1.6687 21.5954 1.50464C22.4532 1.35933 23.3672 1.83745 23.761 2.64839C23.8641 2.85464 23.9157 3.08433 23.9907 3.30464C23.9907 3.5062 23.9907 3.71245 23.9907 3.91402C23.9813 3.92339 23.9625 3.93277 23.9625 3.94683C23.8079 4.68745 23.386 5.20777 22.6969 5.52652C22.6407 5.55464 22.5891 5.66714 22.5891 5.74214C22.5844 9.9187 22.5844 14.1 22.5797 18.2765C22.5797 18.4031 22.6125 18.4687 22.7344 18.5203C23.1844 18.7171 23.536 19.0359 23.7516 19.4765C23.85 19.6781 23.911 19.8937 23.9907 20.1046C24 20.3203 24 20.5218 24 20.7234Z" fill="#696969"/>
</g>
<defs>
<clipPath id="clip0_533_11056">
<rect width="24" height="24" fill="white"/>
</clipPath>
</defs>
</svg>
