<svg width="16" height="16" viewBox="0 0 16 16" fill="none" xmlns="http://www.w3.org/2000/svg">
<path d="M15.25 7C15.1562 6.84375 14.2309 6.44406 14.2309 6.44406C14.3919 6.36094 14.5019 6.34375 14.5019 6C14.5019 5.625 14.5 5.5 14.25 5.5H13.4019C13.3984 5.4925 13.3947 5.48469 13.3912 5.47687C12.8438 4.28125 12.7703 3.97906 11.9537 3.57219C10.8584 3.0275 8.805 3 8 3C7.195 3 5.14156 3.0275 4.04719 3.57219C3.22969 3.97844 3.25 4.1875 2.60969 5.47687C2.60969 5.48031 2.60313 5.48938 2.59719 5.5H1.74812C1.5 5.5 1.49812 5.625 1.49812 6C1.49812 6.34375 1.60812 6.36094 1.76906 6.44406C1.76906 6.44406 0.875 6.875 0.75 7C0.625 7.125 0.5 8 0.5 9.5C0.5 11 0.625 12.5 0.625 12.5H0.998125C0.998125 12.9375 1.0625 13 1.25 13H3.75C3.9375 13 4 12.9375 4 12.5H12C12 12.9375 12.0625 13 12.25 13H14.8125C14.9375 13 15 12.9062 15 12.5H15.375C15.375 12.5 15.5 10.9688 15.5 9.5C15.5 8.03125 15.3438 7.15625 15.25 7ZM3.91438 8.40438C3.34522 8.4666 2.77317 8.49852 2.20062 8.5C1.5625 8.5 1.54062 8.54094 1.49563 8.1425C1.4787 7.96013 1.48405 7.77638 1.51156 7.59531L1.53125 7.5H1.625C2 7.5 2.35219 7.51594 3.01719 7.71187C3.35541 7.81336 3.67354 7.97259 3.9575 8.1825C4.09375 8.28125 4.125 8.375 4.125 8.375L3.91438 8.40438ZM11.6381 10.6544L11.5 11H4.5C4.5 11 4.51219 10.9809 4.34375 10.6506C4.21875 10.4062 4.375 10.25 4.62219 10.1613C5.10094 9.98875 6.5 9.5 8 9.5C9.5 9.5 10.9269 9.92125 11.3906 10.1613C11.5625 10.25 11.7759 10.3125 11.6381 10.6562V10.6544ZM3.60687 6.38781C3.50593 6.39364 3.40476 6.39437 3.30375 6.39C3.38531 6.245 3.43062 6.08344 3.51031 5.91469C3.76031 5.38344 4.04625 4.78219 4.55531 4.52875C5.29094 4.1625 6.81563 3.9975 8 3.9975C9.18437 3.9975 10.7091 4.16125 11.4447 4.52875C11.9538 4.78219 12.2384 5.38375 12.4897 5.91469C12.57 6.085 12.6147 6.24781 12.6984 6.39375C12.6359 6.39719 12.5641 6.39375 12.3925 6.38781H3.60687ZM14.4731 8.14125C14.4062 8.53125 14.4688 8.5 13.7994 8.5C13.2268 8.49852 12.6548 8.4666 12.0856 8.40438C11.9966 8.38844 11.9712 8.23812 12.0425 8.1825C12.325 7.97025 12.6436 7.81081 12.9828 7.71187C13.6478 7.51594 14.0222 7.48969 14.3919 7.50281C14.4167 7.50376 14.4403 7.51386 14.4581 7.53117C14.476 7.54848 14.4868 7.57177 14.4884 7.59656C14.5061 7.77847 14.501 7.96187 14.4731 8.1425V8.14125Z" fill="#696969"/>
</svg>
