<svg width="16" height="16" viewBox="0 0 16 16" fill="none" xmlns="http://www.w3.org/2000/svg">
<path d="M12.7412 6.5C12.6562 6.5 12.29 6.5025 12.1578 6.50969L10.3525 6.55719L6.18936 1.5H4.22654L6.55748 6.64406L3.51654 6.68906L2.13279 5H0.504355L1.14842 7.94312C1.15311 7.96 1.15873 7.97656 1.16498 7.99281C1.16544 7.99434 1.16544 7.99597 1.16498 7.9975C1.15857 8.01365 1.15304 8.03013 1.14842 8.04688L0.495605 11H2.11373L3.53404 9.28125L6.55811 9.34906L4.22623 14.5H6.19498L10.3512 9.44531L12.1565 9.49344C12.2906 9.50063 12.6565 9.50313 12.7397 9.50313C13.5006 9.50313 14.1231 9.39875 14.59 9.1925C15.3819 8.84375 15.5 8.29563 15.5 8C15.5 7.06063 14.4687 6.5 12.7412 6.5Z" fill="#696969"/>
</svg>
