<svg width="16" height="16" viewBox="0 0 16 16" fill="none" xmlns="http://www.w3.org/2000/svg">
<path d="M7.5 0.5V10.0147C7.66667 10.0049 7.83333 10 8 10C8.16667 10 8.33333 10.0049 8.5 10.0147V6.32188L14 3.5L7.5 0.5Z" fill="#696969"/>
<path d="M14.466 14.2969C14.1991 12.9578 13.3722 11.8363 12.0716 11.0531C11.0581 10.4422 9.80501 10.075 8.50001 10V12.9934H7.50001V10C6.19408 10.075 4.94095 10.4422 3.92751 11.0531C2.62783 11.8363 1.80001 12.9578 1.53314 14.2969C1.47064 14.6034 1.51189 15.5 1.51189 15.5H14.4872C14.4872 15.5 14.5272 14.6034 14.466 14.2969Z" fill="#696969"/>
</svg>
