<svg width="16" height="16" viewBox="0 0 16 16" fill="none" xmlns="http://www.w3.org/2000/svg">
<path d="M10 5.5V0.5H1V15.5H5V12.5H6V15.5H15V5.5H10ZM3.5 13.5H2.5V12.5H3.5V13.5ZM3.5 11H2.5V10H3.5V11ZM3.5 8.5H2.5V7.5H3.5V8.5ZM3.5 6H2.5V5H3.5V6ZM3.5 3.5H2.5V2.5H3.5V3.5ZM7.5 2.5H8.5V3.5H7.5V2.5ZM6 11H5V10H6V11ZM6 8.5H5V7.5H6V8.5ZM6 6H5V5H6V6ZM6 3.5H5V2.5H6V3.5ZM8.5 13.5H7.5V12.5H8.5V13.5ZM8.5 11H7.5V10H8.5V11ZM8.5 8.5H7.5V7.5H8.5V8.5ZM8.5 6H7.5V5H8.5V6ZM14 14.5H10V13.5H11V12.5H10V11H11V10H10V8.5H11V7.5H10V6.5H14V14.5Z" fill="#696969"/>
<path d="M12 12.5H13V13.5H12V12.5ZM12 10H13V11H12V10ZM12 7.5H13V8.5H12V7.5Z" fill="#696969"/>
</svg>
