<svg width="24" height="25" viewBox="0 0 24 25" fill="none" xmlns="http://www.w3.org/2000/svg">
<path d="M21.2595 12.2944C21.2595 12.7984 21.2595 13.3024 21.2595 13.8064C21.2163 14.1184 21.1923 14.44 21.1203 14.7472C20.3091 18.424 18.1059 20.824 14.5155 21.9472C13.9587 22.12 13.3827 22.192 12.8067 22.264C12.3027 22.264 11.7987 22.264 11.2947 22.264C10.9923 22.2208 10.6851 22.1968 10.3923 22.1296C6.69628 21.3328 4.28668 19.12 3.15868 15.52C2.98588 14.9776 2.91868 14.4112 2.84668 13.8448C2.84668 13.3168 2.84668 12.7888 2.84668 12.2608C2.88988 11.9728 2.92828 11.68 2.97628 11.392C3.58588 7.93595 6.23068 5.05595 9.62428 4.14395C10.1619 3.99995 10.7139 3.91355 11.2659 3.84155C11.7939 3.84155 12.3219 3.84155 12.8499 3.84155C13.2147 3.89915 13.5891 3.92795 13.9491 4.01435C17.5395 4.88795 19.8819 7.08635 20.9619 10.6192C21.1203 11.1616 21.1923 11.728 21.2595 12.2944ZM12.0627 7.76795C11.2035 7.79675 10.3539 7.76315 9.50428 7.84475C8.54428 7.93595 7.76188 8.34875 7.24828 9.19355C6.93148 9.72155 6.83068 10.312 6.81148 10.9168C6.76828 12.2848 6.76348 13.648 6.80668 15.016C6.81628 15.304 6.83068 15.592 6.88348 15.8752C7.10428 17.0512 7.77628 17.824 8.94268 18.1504C9.23548 18.232 9.53308 18.2752 9.83068 18.28C11.4195 18.3232 13.0083 18.3664 14.5923 18.2464C15.5331 18.1744 16.3011 17.7616 16.8195 16.9456C17.1411 16.432 17.2659 15.856 17.2851 15.2656C17.3283 13.6816 17.3619 12.1024 17.2563 10.5184C17.1603 9.03515 16.0611 7.94075 14.5731 7.83995C13.7331 7.78235 12.8931 7.80155 12.0627 7.76795Z" fill="white"/>
<path d="M12.0476 17.4112C11.3228 17.416 10.598 17.416 9.87316 17.3776C9.32596 17.344 8.80276 17.2432 8.37556 16.8592C7.89556 16.432 7.75636 15.8608 7.72276 15.256C7.65556 14.0272 7.67956 12.7984 7.69396 11.5696C7.69876 11.1664 7.70356 10.7536 7.78516 10.3504C7.97236 9.424 8.59636 8.8528 9.53236 8.7568C10.598 8.6512 11.6636 8.6944 12.7292 8.6896C13.334 8.6848 13.9388 8.6944 14.5436 8.7568C15.5756 8.8624 16.238 9.5248 16.3436 10.5616C16.4156 11.2864 16.4108 12.0112 16.4108 12.736C16.4108 13.5616 16.4204 14.392 16.3772 15.2176C16.3676 15.4336 16.3388 15.6496 16.2908 15.856C16.0844 16.72 15.4652 17.2528 14.5676 17.344C13.7276 17.4256 12.8876 17.4064 12.0476 17.4112ZM12.038 15.736C13.5356 15.736 14.7308 14.5504 14.7356 13.0672C14.7404 11.56 13.5548 10.3648 12.0572 10.36C10.5596 10.36 9.36436 11.5456 9.35956 13.0288C9.35476 14.536 10.5404 15.736 12.038 15.736ZM15.4844 10.2256C15.4844 9.904 15.2012 9.616 14.8796 9.6112C14.5484 9.6064 14.2604 9.8896 14.2556 10.2256C14.2556 10.552 14.5292 10.8352 14.8604 10.84C15.1916 10.8448 15.4844 10.5568 15.4844 10.2256Z" fill="white"/>
<path d="M12.0484 11.272C13.0468 11.272 13.8244 12.0544 13.8244 13.0528C13.8244 14.0464 13.0372 14.8288 12.0388 14.8288C11.0452 14.8288 10.2676 14.0416 10.2676 13.0384C10.2724 12.0544 11.0596 11.272 12.0484 11.272Z" fill="white"/>
</svg>
