<svg width="24" height="25" viewBox="0 0 24 25" fill="none" xmlns="http://www.w3.org/2000/svg">
<path d="M2.81763 13.6288C2.81763 13.2448 2.81763 12.8608 2.81763 12.4768C2.82723 12.424 2.84643 12.3712 2.85123 12.3184C2.88003 11.9008 2.94243 11.488 3.03363 11.0752C4.15683 6.02084 9.19203 2.87684 14.232 4.12964C19.0224 5.32004 21.9792 10 21.0384 14.8432C20.3184 18.5488 17.3232 21.4768 13.6032 22.1104C13.2672 22.168 12.9312 22.2064 12.5952 22.2496C12.2112 22.2496 11.8272 22.2496 11.4432 22.2496C11.4096 22.216 11.3664 22.2208 11.3232 22.2208C10.5456 22.168 9.78243 22.024 9.04803 21.7504C5.70723 20.512 3.68163 18.1408 2.96643 14.656C2.89443 14.32 2.86563 13.9696 2.81763 13.6288ZM12.5232 12.304C12.5232 12.0496 12.5136 11.8192 12.528 11.5888C12.5328 11.4592 12.4896 11.4304 12.3648 11.4304C11.832 11.4352 11.2992 11.44 10.7664 11.4304C10.6224 11.4304 10.6032 11.4784 10.6032 11.6032C10.608 13.6432 10.608 15.688 10.6032 17.728C10.6032 17.8624 10.6368 17.9008 10.776 17.9008C11.3184 17.8912 11.8656 17.8912 12.408 17.9008C12.576 17.9056 12.6048 17.848 12.6 17.6992C12.5952 16.6864 12.5952 15.6736 12.6 14.6656C12.6 14.2912 12.6288 13.9216 12.8064 13.5808C13.0224 13.1632 13.4496 12.9808 14.0208 13.0528C14.4192 13.1056 14.6832 13.3696 14.784 13.8256C14.8368 14.0656 14.856 14.3104 14.856 14.5552C14.856 15.5968 14.8608 16.6384 14.8512 17.68C14.8512 17.872 14.9088 17.9056 15.0816 17.9008C15.6144 17.8912 16.1472 17.8912 16.68 17.9008C16.8336 17.9056 16.8672 17.8576 16.8672 17.7088C16.8624 16.5952 16.8672 15.4816 16.8624 14.368C16.8624 13.8832 16.8384 13.3984 16.728 12.9232C16.5552 12.1696 16.1568 11.6176 15.384 11.3872C15.1632 11.32 14.9424 11.2912 14.712 11.2768C13.8336 11.224 13.0944 11.4832 12.5904 12.2512C12.5808 12.2608 12.5664 12.2704 12.5232 12.304ZM9.34563 14.6512C9.34563 13.6336 9.34563 12.616 9.35043 11.5984C9.35043 11.464 9.31203 11.4256 9.17763 11.4256C8.61603 11.4352 8.05443 11.4304 7.48803 11.4256C7.37283 11.4256 7.33443 11.4544 7.33443 11.5744C7.33923 13.6288 7.33923 15.6784 7.33443 17.7328C7.33443 17.8768 7.38723 17.896 7.51203 17.896C8.05443 17.8912 8.60163 17.8864 9.14403 17.896C9.30243 17.9008 9.34563 17.8576 9.34563 17.6992C9.34083 16.6864 9.34563 15.6688 9.34563 14.6512ZM8.32803 10.5424C8.98083 10.5424 9.50403 10.0192 9.49923 9.36644C9.49443 8.73284 8.96163 8.20484 8.32803 8.20484C7.68963 8.20964 7.16643 8.73284 7.16643 9.37604C7.16643 10.024 7.68483 10.5472 8.32803 10.5424Z" fill="white"/>
</svg>
