<svg width="16" height="17" viewBox="0 0 16 17" fill="none" xmlns="http://www.w3.org/2000/svg">
<path d="M12.5625 5.75C12.4709 7.02094 11.5281 8 10.5 8C9.47187 8 8.5275 7.02125 8.4375 5.75C8.34375 4.42781 9.26156 3.5 10.5 3.5C11.7384 3.5 12.6562 4.45187 12.5625 5.75Z" stroke="#696969" stroke-linecap="round" stroke-linejoin="round"/>
<path d="M10.5001 10C8.46356 10 6.50512 11.0116 6.0145 12.9816C5.9495 13.2422 6.11293 13.5 6.38074 13.5H14.6198C14.8876 13.5 15.0501 13.2422 14.9861 12.9816C14.4954 10.98 12.537 10 10.5001 10Z" stroke="#696969" stroke-miterlimit="10"/>
<path d="M6.25005 6.31063C6.17693 7.32563 5.41505 8.125 4.5938 8.125C3.77255 8.125 3.00943 7.32594 2.93755 6.31063C2.86287 5.25469 3.60443 4.5 4.5938 4.5C5.58318 4.5 6.32474 5.27406 6.25005 6.31063Z" stroke="#696969" stroke-linecap="round" stroke-linejoin="round"/>
<path d="M6.43756 10.0625C5.8735 9.80406 5.25225 9.70468 4.59381 9.70468C2.96881 9.70468 1.40319 10.5125 1.011 12.0859C0.959437 12.2941 1.09006 12.5 1.30381 12.5H4.81256" stroke="#696969" stroke-miterlimit="10" stroke-linecap="round"/>
</svg>
