<svg width="24" height="24" viewBox="0 0 24 24" fill="none" xmlns="http://www.w3.org/2000/svg">
<g clip-path="url(#clip0_533_11060)">
<path d="M9.75 0C9.55109 0 9.36032 0.0790176 9.21967 0.21967C9.07902 0.360322 9 0.551088 9 0.75V4.5H6.75C6.15326 4.5 5.58097 4.73705 5.15901 5.15901C4.73705 5.58097 4.5 6.15326 4.5 6.75V20.25C4.49977 20.7163 4.64442 21.1711 4.91394 21.5516C5.18347 21.9321 5.56455 22.2195 6.0045 22.374C5.98897 22.5748 6.01405 22.7767 6.07823 22.9676C6.14241 23.1585 6.24439 23.3346 6.37808 23.4852C6.51176 23.6359 6.67442 23.7581 6.85635 23.8445C7.03828 23.9309 7.23576 23.9799 7.437 23.9883C7.63824 23.9968 7.83912 23.9646 8.02767 23.8938C8.21621 23.8229 8.38856 23.7148 8.53442 23.5759C8.68029 23.437 8.79669 23.2702 8.87668 23.0853C8.95667 22.9005 8.99861 22.7014 9 22.5H15C14.9989 22.7029 15.0391 22.904 15.118 23.091C15.1969 23.278 15.3129 23.447 15.459 23.5878C15.6052 23.7287 15.7784 23.8384 15.9681 23.9103C16.1579 23.9823 16.3603 24.015 16.563 24.0065C16.7658 23.9979 16.9648 23.9484 17.1478 23.8607C17.3308 23.7731 17.4942 23.6492 17.628 23.4966C17.7618 23.3439 17.8632 23.1658 17.9261 22.9728C17.989 22.7799 18.0121 22.5761 17.994 22.374C18.4342 22.2198 18.8156 21.9325 19.0854 21.552C19.3553 21.1714 19.5001 20.7165 19.5 20.25V6.75C19.5 6.15326 19.2629 5.58097 18.841 5.15901C18.419 4.73705 17.8467 4.5 17.25 4.5H15V0.75C15 0.551088 14.921 0.360322 14.7803 0.21967C14.6397 0.0790176 14.4489 0 14.25 0L9.75 0ZM13.5 4.5H10.5V1.5H13.5V4.5ZM6 10.5V9H18V10.5H6Z" fill="#696969"/>
</g>
<defs>
<clipPath id="clip0_533_11060">
<rect width="24" height="24" fill="white"/>
</clipPath>
</defs>
</svg>
