<svg width="24" height="25" viewBox="0 0 24 25" fill="none" xmlns="http://www.w3.org/2000/svg">
<path d="M2.81763 13.6288C2.81763 13.2448 2.81763 12.8608 2.81763 12.4768C2.82723 12.424 2.84643 12.3712 2.84643 12.3184C2.87523 11.9008 2.93763 11.488 3.02883 11.0752C4.15683 6.02084 9.19203 2.87684 14.232 4.12964C19.0224 5.32004 21.9792 10 21.0384 14.8432C20.3184 18.5488 17.3232 21.4768 13.6032 22.1104C13.2672 22.168 12.9312 22.2064 12.5952 22.2496C12.2112 22.2496 11.8272 22.2496 11.4432 22.2496C11.4096 22.216 11.3664 22.2208 11.3232 22.2208C10.5456 22.168 9.78243 22.024 9.04803 21.7504C5.70723 20.512 3.68163 18.1408 2.96643 14.656C2.89443 14.32 2.86563 13.9696 2.81763 13.6288ZM12.0384 9.59684C11.0544 9.59684 10.0752 9.59204 9.09123 9.59684C7.95363 9.60164 7.17603 10.3792 7.17603 11.5168C7.17603 12.5392 7.17603 13.5664 7.17603 14.5888C7.17603 15.7264 7.95363 16.5088 9.09123 16.5136C11.0448 16.5184 12.9936 16.5184 14.9472 16.5136C16.0848 16.5136 16.8624 15.7312 16.8624 14.5936C16.8624 13.5712 16.8624 12.544 16.8624 11.5216C16.8624 11.3584 16.8528 11.2 16.8144 11.0416C16.6128 10.1632 15.9024 9.60644 14.9616 9.60164C13.9872 9.59204 13.0128 9.59684 12.0384 9.59684Z" fill="white"/>
<path d="M10.7617 11.5791C11.6113 12.0735 12.4369 12.5583 13.2961 13.0575C12.4417 13.5567 11.6113 14.0367 10.7617 14.5311C10.7617 13.5423 10.7617 12.5727 10.7617 11.5791Z" fill="white"/>
</svg>
